<svg width="24" height="24" viewBox="0 0 24 24" fill="none" xmlns="http://www.w3.org/2000/svg">
<path fill-rule="evenodd" clip-rule="evenodd" d="M16.7999 12.8H12.7999V16.8C12.7999 17.24 12.4399 17.6 11.9999 17.6C11.5599 17.6 11.1999 17.24 11.1999 16.8V12.8H7.1999C6.7599 12.8 6.3999 12.44 6.3999 12C6.3999 11.56 6.7599 11.2 7.1999 11.2H11.1999V7.2C11.1999 6.76 11.5599 6.4 11.9999 6.4C12.4399 6.4 12.7999 6.76 12.7999 7.2V11.2H16.7999C17.2399 11.2 17.5999 11.56 17.5999 12C17.5999 12.44 17.2399 12.8 16.7999 12.8Z" fill="#3361FF"/>
</svg>
