<svg width="16" height="16" viewBox="0 0 16 16" fill="none" xmlns="http://www.w3.org/2000/svg">
<g id="Editor/attach_file">
<path id="Icon" fill-rule="evenodd" clip-rule="evenodd" d="M10.4002 5.19956V10.8422C10.4002 11.9569 9.58416 12.9489 8.47483 13.0556C7.20016 13.1782 6.1335 12.1809 6.1335 10.9329V4.34089C6.1335 3.64222 6.63483 3.00756 7.32816 2.93822C8.12816 2.85822 8.80016 3.48222 8.80016 4.26622V9.86622C8.80016 10.1596 8.56016 10.3996 8.26683 10.3996C7.9735 10.3996 7.7335 10.1596 7.7335 9.86622V5.19956C7.7335 4.98089 7.55216 4.79956 7.3335 4.79956C7.11483 4.79956 6.9335 4.98089 6.9335 5.19956V9.79156C6.9335 10.4902 7.43483 11.1249 8.12816 11.1942C8.92816 11.2742 9.60016 10.6502 9.60016 9.86622V4.35689C9.60016 3.24222 8.78416 2.25022 7.67483 2.14356C6.4055 2.02089 5.3335 3.01822 5.3335 4.26622V10.8102C5.3335 12.3409 6.4535 13.7116 7.97883 13.8556C9.7335 14.0156 11.2002 12.6502 11.2002 10.9329V5.19956C11.2002 4.98089 11.0188 4.79956 10.8002 4.79956C10.5815 4.79956 10.4002 4.98089 10.4002 5.19956Z" fill="#6B7A99"/>
</g>
</svg>
