<svg width="32" height="32" viewBox="0 0 32 32" fill="none" xmlns="http://www.w3.org/2000/svg">
<g id="Navigation/close">
<path id="Icon" fill-rule="evenodd" clip-rule="evenodd" d="M22.2852 8.85598C22.0859 8.65625 21.8154 8.544 21.5332 8.544C21.2511 8.544 20.9805 8.65625 20.7812 8.85598L15.5652 14.0613L10.3492 8.84532C10.1499 8.64558 9.87936 8.53333 9.5972 8.53333C9.31505 8.53333 9.04449 8.64558 8.8452 8.84532C8.4292 9.26132 8.4292 9.93332 8.8452 10.3493L14.0612 15.5653L8.8452 20.7813C8.4292 21.1973 8.4292 21.8693 8.8452 22.2853C9.2612 22.7013 9.9332 22.7013 10.3492 22.2853L15.5652 17.0693L20.7812 22.2853C21.1972 22.7013 21.8692 22.7013 22.2852 22.2853C22.7012 21.8693 22.7012 21.1973 22.2852 20.7813L17.0692 15.5653L22.2852 10.3493C22.6905 9.94398 22.6905 9.26132 22.2852 8.85598Z" fill="#6B7A99"/>
</g>
</svg>
