<svg width="24" height="24" viewBox="0 0 24 24" fill="none" xmlns="http://www.w3.org/2000/svg">
<path fill-rule="evenodd" clip-rule="evenodd" d="M6.4001 12H8.8001C9.2401 12 9.6001 11.64 9.6001 11.2V8C9.6001 7.56 9.2401 7.2 8.8001 7.2H6.4001C5.9601 7.2 5.6001 7.56 5.6001 8V11.2C5.6001 11.64 5.9601 12 6.4001 12ZM6.4001 17.6H8.8001C9.2401 17.6 9.6001 17.24 9.6001 16.8V13.6C9.6001 13.16 9.2401 12.8 8.8001 12.8H6.4001C5.9601 12.8 5.6001 13.16 5.6001 13.6V16.8C5.6001 17.24 5.9601 17.6 6.4001 17.6ZM11.2001 17.6H13.6001C14.0401 17.6 14.4001 17.24 14.4001 16.8V13.6C14.4001 13.16 14.0401 12.8 13.6001 12.8H11.2001C10.7601 12.8 10.4001 13.16 10.4001 13.6V16.8C10.4001 17.24 10.7601 17.6 11.2001 17.6ZM16.0001 17.6H18.4001C18.8401 17.6 19.2001 17.24 19.2001 16.8V13.6C19.2001 13.16 18.8401 12.8 18.4001 12.8H16.0001C15.5601 12.8 15.2001 13.16 15.2001 13.6V16.8C15.2001 17.24 15.5601 17.6 16.0001 17.6ZM11.2001 12H13.6001C14.0401 12 14.4001 11.64 14.4001 11.2V8C14.4001 7.56 14.0401 7.2 13.6001 7.2H11.2001C10.7601 7.2 10.4001 7.56 10.4001 8V11.2C10.4001 11.64 10.7601 12 11.2001 12ZM15.2001 8V11.2C15.2001 11.64 15.5601 12 16.0001 12H18.4001C18.8401 12 19.2001 11.64 19.2001 11.2V8C19.2001 7.56 18.8401 7.2 18.4001 7.2H16.0001C15.5601 7.2 15.2001 7.56 15.2001 8Z" fill="#6B7A99"/>
</svg>
