<svg width="25" height="24" viewBox="0 0 25 24" fill="none" xmlns="http://www.w3.org/2000/svg">
<path fill-rule="evenodd" clip-rule="evenodd" d="M15.7 3.20001H6.90005C6.02005 3.20001 5.30005 3.92001 5.30005 4.80001V15.2C5.30005 15.64 5.66005 16 6.10005 16C6.54005 16 6.90005 15.64 6.90005 15.2V5.60001C6.90005 5.16001 7.26005 4.80001 7.70005 4.80001H15.7C16.14 4.80001 16.5 4.44001 16.5 4.00001C16.5 3.56001 16.14 3.20001 15.7 3.20001ZM18.9 6.40001H10.1C9.22005 6.40001 8.50005 7.12001 8.50005 8.00001V19.2C8.50005 20.08 9.22005 20.8 10.1 20.8H18.9C19.78 20.8 20.5 20.08 20.5 19.2V8.00001C20.5 7.12001 19.78 6.40001 18.9 6.40001ZM18.1 19.2H10.9C10.46 19.2 10.1 18.84 10.1 18.4V8.80001C10.1 8.36001 10.46 8.00001 10.9 8.00001H18.1C18.54 8.00001 18.9 8.36001 18.9 8.80001V18.4C18.9 18.84 18.54 19.2 18.1 19.2Z" fill="#6B7A99"/>
</svg>
