<svg width="24" height="24" viewBox="0 0 24 24" fill="none" xmlns="http://www.w3.org/2000/svg">
<path fill-rule="evenodd" clip-rule="evenodd" d="M12.24 11.12C10.424 10.648 9.84 10.16 9.84 9.39999C9.84 8.52799 10.648 7.91999 12 7.91999C13.136 7.91999 13.704 8.35199 13.912 9.03999C14.008 9.35999 14.272 9.59999 14.608 9.59999H14.848C15.376 9.59999 15.752 9.07999 15.568 8.58399C15.232 7.63999 14.448 6.85599 13.2 6.55199V5.99999C13.2 5.33599 12.664 4.79999 12 4.79999C11.336 4.79999 10.8 5.33599 10.8 5.99999V6.52799C9.248 6.86399 8 7.87199 8 9.41599C8 11.264 9.528 12.184 11.76 12.72C13.76 13.2 14.16 13.904 14.16 14.648C14.16 15.2 13.768 16.08 12 16.08C10.68 16.08 10 15.608 9.736 14.936C9.616 14.624 9.344 14.4 9.016 14.4H8.792C8.256 14.4 7.88 14.944 8.08 15.44C8.536 16.552 9.6 17.208 10.8 17.464V18C10.8 18.664 11.336 19.2 12 19.2C12.664 19.2 13.2 18.664 13.2 18V17.48C14.76 17.184 16 16.28 16 14.64C16 12.368 14.056 11.592 12.24 11.12Z" fill="#6B7A99"/>
</svg>
