<svg width="24" height="24" viewBox="0 0 24 24" fill="none" xmlns="http://www.w3.org/2000/svg">
<path fill-rule="evenodd" clip-rule="evenodd" d="M15.1998 11.624C14.9678 11.392 14.5838 11.392 14.3518 11.624L10.8718 15.104L9.5998 13.832C9.3678 13.6 8.9838 13.6 8.7518 13.832C8.5198 14.064 8.5198 14.448 8.7518 14.68L10.3038 16.232C10.6158 16.544 11.1198 16.544 11.4318 16.232L15.1918 12.472C15.4318 12.24 15.4318 11.856 15.1998 11.624ZM17.5998 5.6H16.7998V4.8C16.7998 4.36 16.4398 4 15.9998 4C15.5598 4 15.1998 4.36 15.1998 4.8V5.6H8.7998V4.8C8.7998 4.36 8.4398 4 7.9998 4C7.5598 4 7.1998 4.36 7.1998 4.8V5.6H6.3998C5.5118 5.6 4.8078 6.32 4.8078 7.2L4.7998 18.4C4.7998 19.28 5.5118 20 6.3998 20H17.5998C18.4798 20 19.1998 19.28 19.1998 18.4V7.2C19.1998 6.32 18.4798 5.6 17.5998 5.6ZM16.7998 18.4H7.1998C6.7598 18.4 6.3998 18.04 6.3998 17.6V9.6H17.5998V17.6C17.5998 18.04 17.2398 18.4 16.7998 18.4Z" fill="#6B7A99"/>
</svg>
