<svg width="24" height="24" viewBox="0 0 24 24" fill="none" xmlns="http://www.w3.org/2000/svg">
<g id="File/download">
<path id="Icon" fill-rule="evenodd" clip-rule="evenodd" d="M15.6719 10.4001H14.3999V6.4001C14.3999 5.9601 14.0399 5.6001 13.5999 5.6001H10.3999C9.9599 5.6001 9.5999 5.9601 9.5999 6.4001V10.4001H8.3279C7.6159 10.4001 7.2559 11.2641 7.7599 11.7681L11.4319 15.4401C11.7439 15.7521 12.2479 15.7521 12.5599 15.4401L16.2319 11.7681C16.7359 11.2641 16.3839 10.4001 15.6719 10.4001ZM6.3999 18.4001C6.3999 18.8401 6.7599 19.2001 7.1999 19.2001H16.7999C17.2399 19.2001 17.5999 18.8401 17.5999 18.4001C17.5999 17.9601 17.2399 17.6001 16.7999 17.6001H7.1999C6.7599 17.6001 6.3999 17.9601 6.3999 18.4001Z" fill="#6B7A99"/>
</g>
</svg>
