<svg width="24" height="24" viewBox="0 0 24 24" fill="none" xmlns="http://www.w3.org/2000/svg">
<path fill-rule="evenodd" clip-rule="evenodd" d="M19.1998 5.96C19.1998 5.32 18.6798 4.8 18.0398 4.8H5.9598C5.3198 4.8 4.7998 5.32 4.7998 5.96C4.7998 6.24 4.9038 6.52 5.0958 6.728L11.1998 13.6V17.6H7.9998C7.5598 17.6 7.1998 17.96 7.1998 18.4C7.1998 18.84 7.5598 19.2 7.9998 19.2H15.9998C16.4398 19.2 16.7998 18.84 16.7998 18.4C16.7998 17.96 16.4398 17.6 15.9998 17.6H12.7998V13.6L18.9038 6.728C19.0958 6.52 19.1998 6.24 19.1998 5.96ZM8.3438 8L6.9278 6.4H17.0798L15.6558 8H8.3438Z" fill="#6B7A99"/>
</svg>
