<svg width="24" height="24" viewBox="0 0 24 24" fill="none" xmlns="http://www.w3.org/2000/svg">
<g id="Format/pdf">
<path id="Icon" fill-rule="evenodd" clip-rule="evenodd" d="M4.64014 9.6001H7.08154C8.29248 9.6001 9.11279 10.3853 9.11279 11.5962C9.11279 12.7993 8.24951 13.5845 6.99561 13.5845H6.07373V15.2368H4.64014V9.6001ZM6.07373 10.6978V12.5063H6.69482C7.3042 12.5063 7.66357 12.1899 7.66357 11.6001C7.66357 11.0142 7.3042 10.6978 6.70264 10.6978H6.07373ZM9.74951 9.6001H12.0386C13.7417 9.6001 14.7417 10.5884 14.7417 12.3853C14.7417 14.186 13.7378 15.2368 12.0386 15.2368H9.74951V9.6001ZM11.1831 10.7563V14.0806H11.8511C12.7847 14.0806 13.2847 13.5142 13.2847 12.3892C13.2847 11.3306 12.7573 10.7563 11.8511 10.7563H11.1831ZM16.8706 15.2368H15.437V9.6001H19.2729V10.7563H16.8706V12.0376H19.0542V13.1353H16.8706V15.2368Z" fill="#E64B17"/>
</g>
</svg>
