<svg width="24" height="24" viewBox="0 0 24 24" fill="none" xmlns="http://www.w3.org/2000/svg">
<path fill-rule="evenodd" clip-rule="evenodd" d="M15.4334 15.842V11.034C15.4334 10.594 15.0734 10.234 14.6334 10.234C14.1934 10.234 13.8334 10.594 13.8334 11.034V15.842H12.4014C12.0414 15.842 11.8654 16.274 12.1214 16.522L14.3534 18.746C14.5134 18.898 14.7614 18.898 14.9214 18.746L17.1534 16.522C17.4094 16.274 17.2254 15.842 16.8734 15.842H15.4334V15.842ZM9.55342 4.914L7.32142 7.146C7.06542 7.394 7.24142 7.826 7.60142 7.826H9.03342V12.634C9.03342 13.074 9.39342 13.434 9.83342 13.434C10.2734 13.434 10.6334 13.074 10.6334 12.634V7.826H12.0654C12.4254 7.826 12.6014 7.394 12.3454 7.146L10.1134 4.914C9.96142 4.762 9.70542 4.762 9.55342 4.914Z" fill="#6B7A99"/>
</svg>
