<svg width="24" height="24" viewBox="0 0 24 24" fill="none" xmlns="http://www.w3.org/2000/svg">
<path fill-rule="evenodd" clip-rule="evenodd" d="M6.54308 7.19998H17.7431C18.1831 7.19998 18.5431 6.83998 18.5431 6.39998C18.5431 5.95998 18.1831 5.59998 17.7431 5.59998H6.54308C6.10308 5.59998 5.74308 5.95998 5.74308 6.39998C5.74308 6.83998 6.10308 7.19998 6.54308 7.19998ZM18.6711 8.63998C18.5991 8.27198 18.2711 7.99998 17.8871 7.99998H6.39908C6.01508 7.99998 5.68708 8.27198 5.61508 8.63998L4.81508 12.64C4.71908 13.136 5.09508 13.6 5.59908 13.6H5.74308V17.6C5.74308 18.04 6.10308 18.4 6.54308 18.4H12.9431C13.3831 18.4 13.7431 18.04 13.7431 17.6V13.6H16.9431V17.6C16.9431 18.04 17.3031 18.4 17.7431 18.4C18.1831 18.4 18.5431 18.04 18.5431 17.6V13.6H18.6871C19.1911 13.6 19.5671 13.136 19.4711 12.64L18.6711 8.63998ZM12.1431 16.8H7.34308V13.6H12.1431V16.8Z" fill="#6B7A99"/>
</svg>
