<svg width="24" height="24" viewBox="0 0 24 24" fill="none" xmlns="http://www.w3.org/2000/svg">
<g id="Action/delete">
<path id="Icon" fill-rule="evenodd" clip-rule="evenodd" d="M7.20039 17.6C7.20039 18.48 7.92039 19.2 8.80039 19.2H15.2004C16.0804 19.2 16.8004 18.48 16.8004 17.6V9.59999C16.8004 8.71999 16.0804 7.99999 15.2004 7.99999H8.80039C7.92039 7.99999 7.20039 8.71999 7.20039 9.59999V17.6ZM16.8004 5.59999H14.8004L14.2324 5.03199C14.0884 4.88799 13.8804 4.79999 13.6724 4.79999H10.3284C10.1204 4.79999 9.91239 4.88799 9.76839 5.03199L9.20039 5.59999H7.20039C6.76039 5.59999 6.40039 5.95999 6.40039 6.39999C6.40039 6.83999 6.76039 7.19999 7.20039 7.19999H16.8004C17.2404 7.19999 17.6004 6.83999 17.6004 6.39999C17.6004 5.95999 17.2404 5.59999 16.8004 5.59999Z" fill="#6B7A99"/>
</g>
</svg>
