<svg width="24" height="24" viewBox="0 0 24 24" fill="none" xmlns="http://www.w3.org/2000/svg">
<g id="Social/people_outline">
<path id="Icon" fill-rule="evenodd" clip-rule="evenodd" d="M9.6 12C11.144 12 12.4 10.744 12.4 9.19999C12.4 7.65599 11.144 6.39999 9.6 6.39999C8.056 6.39999 6.8 7.65599 6.8 9.19999C6.8 10.744 8.056 12 9.6 12ZM9.6 7.99999C10.264 7.99999 10.8 8.53599 10.8 9.19999C10.8 9.86399 10.264 10.4 9.6 10.4C8.936 10.4 8.4 9.86399 8.4 9.19999C8.4 8.53599 8.936 7.99999 9.6 7.99999ZM9.6 13.4C7.728 13.4 4 14.336 4 16.2V16.8C4 17.24 4.36 17.6 4.8 17.6H14.4C14.84 17.6 15.2 17.24 15.2 16.8V16.2C15.2 14.336 11.472 13.4 9.6 13.4ZM5.872 16C6.544 15.536 8.168 15 9.6 15C11.032 15 12.656 15.536 13.328 16H5.872ZM15.232 13.448C16.16 14.12 16.8 15.016 16.8 16.2V17.6H19.2C19.64 17.6 20 17.24 20 16.8V16.2C20 14.584 17.2 13.664 15.232 13.448ZM14.4 12C15.944 12 17.2 10.744 17.2 9.19999C17.2 7.65599 15.944 6.39999 14.4 6.39999C13.968 6.39999 13.568 6.50399 13.2 6.67999C13.704 7.39199 14 8.26399 14 9.19999C14 10.136 13.704 11.008 13.2 11.72C13.568 11.896 13.968 12 14.4 12Z" fill="#6B7A99"/>
</g>
</svg>
