<svg width="24" height="24" viewBox="0 0 24 24" fill="none" xmlns="http://www.w3.org/2000/svg">
<path fill-rule="evenodd" clip-rule="evenodd" d="M12.0002 6.40002C8.0002 6.40002 4.5842 8.88802 3.2002 12.4C4.5842 15.912 8.0002 18.4 12.0002 18.4C16.0002 18.4 19.4162 15.912 20.8002 12.4C19.4162 8.88802 16.0002 6.40002 12.0002 6.40002ZM12.0002 16.4C9.7922 16.4 8.0002 14.608 8.0002 12.4C8.0002 10.192 9.7922 8.40002 12.0002 8.40002C14.2082 8.40002 16.0002 10.192 16.0002 12.4C16.0002 14.608 14.2082 16.4 12.0002 16.4ZM12.0002 10C10.6722 10 9.6002 11.072 9.6002 12.4C9.6002 13.728 10.6722 14.8 12.0002 14.8C13.3282 14.8 14.4002 13.728 14.4002 12.4C14.4002 11.072 13.3282 10 12.0002 10Z" fill="#6B7A99"/>
</svg>
