<svg width="16" height="16" viewBox="0 0 16 16" fill="none" xmlns="http://www.w3.org/2000/svg">
<g id="Action/report_problem">
<path id="Icon" fill-rule="evenodd" clip-rule="evenodd" d="M3.20088 12.8013H13.0835C13.4942 12.8013 13.7502 12.3587 13.5475 12.0013L8.60355 3.46801C8.39555 3.11068 7.88355 3.11068 7.68088 3.46801L2.73688 12.0013C2.53421 12.3587 2.79021 12.8013 3.20088 12.8013ZM8.67821 11.2013H7.61155V10.1347H8.67821V11.2013ZM8.14488 9.06801C7.85155 9.06801 7.61155 8.82801 7.61155 8.53468V7.46801C7.61155 7.17468 7.85155 6.93468 8.14488 6.93468C8.43821 6.93468 8.67821 7.17468 8.67821 7.46801V8.53468C8.67821 8.82801 8.43821 9.06801 8.14488 9.06801Z" fill="#E62E2E"/>
</g>
</svg>
