<svg width="113" height="42" viewBox="0 0 113 42" fill="none" xmlns="http://www.w3.org/2000/svg">
<g clip-path="url(#clip0_57_1077)">
<path d="M55.3533 6.81775C51.6924 6.81775 48.5609 9.17057 47.2818 12.5255C47.2377 12.6998 46.9731 13.3969 46.9731 13.3969L41.9009 35.1823H53.589C57.6027 35.1823 60.9988 32.3066 61.9692 28.4724L67.0414 6.81775H55.3533Z" fill="#0DB04B"/>
<path d="M35.8583 0.5C31.9328 0.5 28.6248 3.11424 27.6104 6.68704C27.5222 6.94846 27.4781 7.20988 27.434 7.51488L19.4949 41.5H31.183C35.1967 41.5 38.5487 38.7551 39.5191 35.0515L47.5905 0.5H35.8583Z" fill="#F26F21"/>
<path d="M13.4524 6.81775C9.65925 6.81775 6.39539 9.34485 5.24863 12.9176C5.20453 13.0048 5.20453 13.0919 5.16042 13.1355L4.984 13.8762L0 35.1823H11.9969C15.5695 35.1823 18.6569 32.8294 19.8478 29.5616L20.2888 27.5138L25.1405 6.81775H13.4524Z" fill="#0066B2"/>
<path d="M11.2471 13.8762H11.0706C10.2326 13.8762 9.43872 14.1812 8.73302 14.7476C8.02732 15.3141 7.58626 15.9676 7.40984 16.534L4.71936 28.0367H4.85168C5.6897 28.0367 6.48361 27.7317 7.23341 27.1653C7.98322 26.5989 8.42428 25.8582 8.6007 25.0303L9.17408 22.5468H14.5109C15.3489 22.5468 16.1429 22.2418 16.8927 21.6754C17.5984 21.1089 18.0835 20.3682 18.26 19.5404L18.3041 19.4097H9.92389L10.4973 17.0133H17.7307C18.5687 17.0133 19.3626 16.7083 20.0683 16.1419C20.774 15.5755 21.2151 14.8348 21.4356 14.0069L21.4797 13.8762H11.2471Z" fill="white"/>
<path d="M40.8424 14.5734C40.4013 14.1376 39.7838 13.8762 39.034 13.8762H28.8014L25.4934 28.0803H25.6257C26.4637 28.0803 27.2577 27.7753 28.0075 27.2088C28.7573 26.6424 29.1983 25.9017 29.3748 25.0739L29.9481 22.5468H37.0492C37.8872 22.5468 38.637 22.4596 39.3427 21.8932C40.0484 21.3268 40.5777 20.4118 40.7541 19.584L41.3716 16.9697C41.4157 16.7519 41.4598 16.534 41.4598 16.3162C41.5481 15.619 41.3275 15.0526 40.8424 14.5734ZM37.6667 19.4097H30.742L31.3154 17.0133H38.2401L37.6667 19.4097Z" fill="white"/>
<path d="M61.7045 14.5734C61.2634 14.1376 60.6459 13.8762 59.9402 13.8762H55.4414H55.1327H49.1342V13.9634C49.0901 14.1812 49.046 14.3991 49.046 14.5734C49.046 15.2705 49.2666 15.8369 49.7076 16.3162C50.1487 16.7519 50.7662 17.0133 51.4719 17.0133H53.7213L51.1631 28.0367H51.2954C52.1335 28.0367 52.9274 27.7317 53.6772 27.1653C54.427 26.5989 54.868 25.8582 55.0445 25.0303L56.941 17.0133H62.2779V16.9262C62.322 16.7083 62.3661 16.4905 62.3661 16.2726C62.3661 15.619 62.1456 15.0526 61.7045 14.5734Z" fill="white"/>
<path d="M63.7775 32.7423C63.7775 31.3916 64.8801 30.3024 66.2474 30.3024C67.6147 30.3024 68.7174 31.3916 68.7174 32.7423C68.7174 34.093 67.6147 35.1823 66.2474 35.1823C64.8801 35.1823 63.7775 34.093 63.7775 32.7423ZM68.144 32.7423C68.144 31.6095 67.306 30.7816 66.2915 30.7816C65.2771 30.7816 64.4391 31.6095 64.4391 32.7423C64.4391 33.8752 65.2771 34.703 66.2915 34.703C67.306 34.703 68.144 33.8752 68.144 32.7423ZM65.3212 31.3481H66.3797C67.0413 31.3481 67.4383 31.5659 67.4383 32.1759C67.4383 32.6552 67.1736 32.873 66.6885 32.9166L67.4383 34.1366H66.909L66.2033 32.9602H65.8946V34.1366H65.3653V31.3481H65.3212ZM65.8063 32.5245H66.2474C66.5561 32.5245 66.8208 32.4809 66.8208 32.1323C66.8208 31.7838 66.512 31.7402 66.2474 31.7402H65.7622V32.5245H65.8063Z" fill="#0066B2"/>
<path d="M81.3759 26.5553C80.6261 27.6445 79.5234 28.211 78.1561 28.211C76.7888 28.211 75.7303 27.6445 74.9364 26.5553C74.2307 25.5531 73.8778 24.2024 73.8778 22.5468C73.8778 20.8911 74.2307 19.5404 74.9364 18.5383C75.6862 17.449 76.7888 16.9261 78.1561 16.9261C79.5234 16.9261 80.582 17.449 81.3759 18.5383C82.0816 19.5404 82.4344 20.8911 82.4344 22.5468C82.4344 24.2024 82.0816 25.5531 81.3759 26.5553ZM80.0527 19.6275C79.6116 18.8433 78.95 18.4511 78.1561 18.4511C77.3622 18.4511 76.7006 18.8433 76.2595 19.6275C75.8185 20.3682 75.5979 21.3704 75.5979 22.5903C75.5979 23.8103 75.8185 24.8124 76.2595 25.5531C76.7006 26.3374 77.3622 26.7295 78.1561 26.7295C78.95 26.7295 79.6116 26.3374 80.0527 25.5531C80.4937 24.8124 80.7143 23.8103 80.7143 22.5903C80.7143 21.3268 80.4937 20.3682 80.0527 19.6275Z" fill="#0066B2"/>
<path d="M88.521 28.0367V22.5903C88.521 21.5446 87.9476 21.0654 86.8009 21.0654C86.1834 21.0654 85.6982 21.1525 85.3013 21.3268V28.0802H83.6252V20.3247C84.5515 19.9325 85.61 19.7582 86.8009 19.7582C89.0944 19.7582 90.2412 20.6732 90.2412 22.4596V28.0367H88.521Z" fill="#0066B2"/>
<path d="M91.7408 28.0366V16.1854H93.4169V28.0366H91.7408Z" fill="#0066B2"/>
<path d="M96.5043 18.1461C96.3279 18.3204 96.0633 18.4075 95.7986 18.4075C95.534 18.4075 95.2694 18.3204 95.0929 18.1461C94.9165 17.9718 94.7842 17.754 94.7842 17.4926C94.7842 17.2311 94.8724 17.0133 95.0929 16.839C95.2694 16.6647 95.534 16.5776 95.7986 16.5776C96.0633 16.5776 96.3279 16.6647 96.5043 16.839C96.6807 17.0133 96.8131 17.2311 96.8131 17.4926C96.8131 17.754 96.6807 17.9718 96.5043 18.1461ZM94.9606 28.0367V19.8889H96.6366V28.0367H94.9606Z" fill="#0066B2"/>
<path d="M103.032 28.0367V22.5903C103.032 21.5446 102.459 21.0654 101.312 21.0654C100.694 21.0654 100.209 21.1525 99.8123 21.3268V28.0802H98.1362V20.3247C99.0625 19.9325 100.121 19.7582 101.312 19.7582C103.605 19.7582 104.752 20.6732 104.752 22.4596V28.0367H103.032Z" fill="#0066B2"/>
<path d="M112.956 23.941L107.487 24.6817C107.663 26.1631 108.501 26.9038 110.001 26.9038C110.883 26.9038 111.677 26.7295 112.294 26.4246L112.779 27.6445C112.03 28.0367 111.059 28.211 109.913 28.211C108.633 28.211 107.619 27.8188 106.913 27.0781C106.208 26.3374 105.855 25.2917 105.855 23.9846C105.855 22.721 106.208 21.7189 106.869 20.9346C107.531 20.1504 108.457 19.7582 109.604 19.7582C110.662 19.7582 111.5 20.0632 112.118 20.7168C112.735 21.3704 113 22.2418 113 23.331C113 23.5925 113 23.7667 112.956 23.941ZM111.368 23.0696C111.368 21.6753 110.751 20.9346 109.516 20.9346C108.854 20.9346 108.369 21.1525 107.972 21.6318C107.575 22.1111 107.354 22.7646 107.354 23.5925L111.368 23.0696Z" fill="#0066B2"/>
</g>
<defs>
<clipPath id="clip0_57_1077">
<rect width="113" height="41" fill="white" transform="translate(0 0.5)"/>
</clipPath>
</defs>
</svg>
