<?xml version="1.0" standalone="no"?>
<!DOCTYPE svg PUBLIC "-//W3C//DTD SVG 1.1//EN" "http://www.w3.org/Graphics/SVG/1.1/DTD/svg11.dtd" >
<svg xmlns="http://www.w3.org/2000/svg">
<metadata>Generated by IcoMoon</metadata>
<defs>
<font id="icomoon" horiz-adv-x="1024">
<font-face units-per-em="1024" ascent="960" descent="-64" />
<missing-glyph horiz-adv-x="1024" />
<glyph unicode="&#x20;" horiz-adv-x="512" d="" />
<glyph unicode="&#xe900;" glyph-name="add" d="M716.796 413.867h-170.667v-170.667c0-18.773-15.36-34.133-34.133-34.133s-34.133 15.36-34.133 34.133v170.667h-170.667c-18.773 0-34.133 15.36-34.133 34.133s15.36 34.133 34.133 34.133h170.667v170.667c0 18.773 15.36 34.133 34.133 34.133s34.133-15.36 34.133-34.133v-170.667h170.667c18.773 0 34.133-15.36 34.133-34.133s-15.36-34.133-34.133-34.133z" />
<glyph unicode="&#xe901;" glyph-name="arrow-down" d="M630.182 560.384l-132.437-132.438-132.436 132.438c-13.312 13.312-34.816 13.312-48.128 0-6.391-6.377-9.984-15.035-9.984-24.064s3.592-17.686 9.984-24.064l156.67-156.672c13.312-13.312 34.816-13.312 48.128 0l156.672 156.672c13.312 13.312 13.312 34.816 0 48.128-13.312 12.971-35.157 13.312-48.469 0z" />
<glyph unicode="&#xe902;" glyph-name="attach-file" d="M665.613 627.228v-361.129c0-71.341-52.227-134.829-123.224-141.658-81.579-7.846-149.845 55.981-149.845 135.853v421.889c0 44.715 32.085 85.333 76.458 89.771 51.2 5.12 94.208-34.816 94.208-84.992v-358.4c0-18.776-15.36-34.136-34.133-34.136s-34.133 15.36-34.133 34.136v298.666c0 13.995-11.606 25.6-25.6 25.6s-25.6-11.605-25.6-25.6v-293.888c0-44.713 32.085-85.334 76.458-89.769 51.2-5.12 94.208 34.816 94.208 84.991v352.597c0 71.339-52.224 134.827-123.221 141.653-81.237 7.851-149.845-55.978-149.845-135.85v-418.815c0-97.965 71.68-185.69 169.301-194.906 112.299-10.24 206.168 77.146 206.168 187.053v366.934c0 13.995-11.61 25.6-25.6 25.6-13.997 0-25.6-11.605-25.6-25.6z" />
<glyph unicode="&#xe903;" glyph-name="chart-line" d="M170.667 448l170.667 102.401 170.667-136.534 341.333 170.668v136.533l-341.333-170.667-170.667 136.533-170.667-102.4v-136.534zM853.333 174.933h-682.667v102.4h682.667v-102.4z" />
<glyph unicode="&#xe904;" glyph-name="chart-square" d="M375.469 277.333c18.773 0 34.133 15.36 34.133 34.133v170.667c0 18.773-15.36 34.133-34.133 34.133s-34.133-15.36-34.133-34.133v-170.667c0-18.773 15.36-34.133 34.133-34.133zM512 277.333c18.773 0 34.133 15.36 34.133 34.133v273.067c0 18.773-15.36 34.133-34.133 34.133s-34.133-15.36-34.133-34.133v-273.067c0-18.773 15.36-34.133 34.133-34.133zM648.533 277.333c18.773 0 34.133 15.36 34.133 34.133v68.267c0 18.773-15.36 34.133-34.133 34.133s-34.133-15.36-34.133-34.133v-68.267c0-18.773 15.36-34.133 34.133-34.133zM716.8 209.067h-409.598c-18.773 0-34.133 15.36-34.133 34.133v409.6c0 18.773 15.36 34.133 34.133 34.133h409.598c18.773 0 34.133-15.36 34.133-34.133v-409.6c0-18.773-15.36-34.133-34.133-34.133zM750.933 755.2h-477.865c-37.547 0-68.267-30.72-68.267-68.267v-477.867c0-37.547 30.72-68.267 68.267-68.267h477.865c37.547 0 68.267 30.72 68.267 68.267v477.867c0 37.547-30.72 68.267-68.267 68.267z" />
<glyph unicode="&#xe905;" glyph-name="check-list" d="M546.133 550.4c18.773 0 34.133-15.36 34.133-34.134s-15.36-34.133-34.133-34.133h-341.333c-18.773 0-34.133 15.36-34.133 34.133s15.36 34.134 34.133 34.134h341.333zM546.133 686.934c18.773 0 34.133-15.36 34.133-34.133s-15.36-34.133-34.133-34.133h-341.333c-18.773 0-34.133 15.36-34.133 34.133s15.36 34.133 34.133 34.133h341.333zM204.8 345.6c-18.773 0-34.133 15.36-34.133 34.133s15.36 34.133 34.133 34.133h204.8c18.773 0 34.133-15.36 34.133-34.133s-15.36-34.133-34.133-34.133h-204.8zM860.501 474.965c-13.312 13.312-35.157 13.312-48.128-0.341l-163.157-163.499-78.507 78.507c-13.312 13.312-34.816 13.312-48.128 0l-3.072-3.072c-6.391-6.379-9.984-15.036-9.984-24.064s3.593-17.685 9.984-24.064l105.472-105.472c13.312-13.312 34.816-13.312 48.128 0l190.464 190.805c13.312 13.312 13.312 34.816 0 48.128l-3.072 3.072z" />
<glyph unicode="&#xe906;" glyph-name="comment" d="M853.325 721.068c0 37.546-30.72 68.266-68.269 68.266h-546.133c-37.547 0-68.267-30.72-68.267-68.266v-409.599c0-37.549 30.72-68.269 68.267-68.269h477.864l136.538-136.531v614.399z" />
<glyph unicode="&#xe907;" glyph-name="component" d="M273.071 448c-18.773 0-34.133 15.36-34.133 34.133v136.533c0 18.773 15.36 34.133 34.133 34.133h102.4c18.773 0 34.133-15.36 34.133-34.133v-136.533c0-18.773-15.36-34.133-34.133-34.133h-102.4zM273.071 209.067c-18.773 0-34.133 15.36-34.133 34.133v136.533c0 18.773 15.36 34.133 34.133 34.133h102.4c18.773 0 34.133-15.36 34.133-34.133v-136.533c0-18.773-15.36-34.133-34.133-34.133h-102.4zM477.871 209.067c-18.773 0-34.133 15.36-34.133 34.133v136.533c0 18.773 15.36 34.133 34.133 34.133h102.4c18.773 0 34.133-15.36 34.133-34.133v-136.533c0-18.773-15.36-34.133-34.133-34.133h-102.4zM682.671 209.067c-18.773 0-34.133 15.36-34.133 34.133v136.533c0 18.773 15.36 34.133 34.133 34.133h102.4c18.773 0 34.133-15.36 34.133-34.133v-136.533c0-18.773-15.36-34.133-34.133-34.133h-102.4zM477.871 448c-18.773 0-34.133 15.36-34.133 34.133v136.533c0 18.773 15.36 34.133 34.133 34.133h102.4c18.773 0 34.133-15.36 34.133-34.133v-136.533c0-18.773-15.36-34.133-34.133-34.133h-102.4zM648.538 618.667c0 18.773 15.36 34.133 34.133 34.133h102.4c18.773 0 34.133-15.36 34.133-34.133v-136.533c0-18.773-15.36-34.133-34.133-34.133h-102.4c-18.773 0-34.133 15.36-34.133 34.133v136.533z" />
<glyph unicode="&#xe908;" glyph-name="copy" d="M643.072 808.448c18.022 0 32.768-14.746 32.768-32.768s-14.746-32.768-32.768-32.768h-327.678c-18.022 0-32.768-14.746-32.768-32.768v-393.216c0-18.022-14.746-32.768-32.768-32.768s-32.768 14.746-32.768 32.768v425.984c0 36.045 29.491 65.536 65.536 65.536h360.446zM774.144 677.376h-360.448c-36.043 0-65.534-29.491-65.534-65.536v-458.752c0-36.045 29.491-65.536 65.534-65.536h360.448c36.045 0 65.536 29.491 65.536 65.536v458.752c0 36.045-29.491 65.536-65.536 65.536zM741.376 153.088h-294.912c-18.022 0-32.768 14.746-32.768 32.768v393.216c0 18.022 14.746 32.768 32.768 32.768h294.912c18.022 0 32.768-14.746 32.768-32.768v-393.216c0-18.022-14.746-32.768-32.768-32.768z" />
<glyph unicode="&#xe909;" glyph-name="currency" d="M522.24 485.547c-77.483 20.139-102.4 40.96-102.4 73.387 0 37.205 34.475 63.147 92.16 63.147 48.469 0 72.704-18.432 81.579-47.787 4.096-13.653 15.36-23.893 29.696-23.893h10.24c22.528 0 38.571 22.187 30.72 43.349-14.336 40.277-47.787 73.728-101.035 86.699v23.552c0 28.331-22.869 51.2-51.2 51.2s-51.2-22.869-51.2-51.2v-22.528c-66.219-14.336-119.467-57.344-119.467-123.221 0-78.848 65.195-118.102 160.427-140.971 85.333-20.48 102.4-50.517 102.4-82.261 0-23.552-16.725-61.099-92.16-61.099-56.32 0-85.333 20.139-96.597 48.811-5.12 13.312-16.725 22.869-30.72 22.869h-9.557c-22.869 0-38.912-23.211-30.379-44.373 19.456-47.445 64.853-75.435 116.053-86.357v-22.869c0-28.331 22.869-51.2 51.2-51.2s51.2 22.869 51.2 51.2v22.187c66.56 12.629 119.467 51.2 119.467 121.173 0 96.939-82.944 130.048-160.427 150.187z" />
<glyph unicode="&#xe90a;" glyph-name="datetime" d="M648.525 464.043c9.899-9.899 9.899-26.283-0.341-36.181l-160.427-160.427c-13.312-13.312-34.816-13.312-48.128 0l-66.219 66.219c-9.899 9.899-9.899 26.283 0 36.181s26.283 9.899 36.181 0l54.272-54.272 148.48 148.48c9.899 9.899 26.283 9.899 36.181 0zM750.925 721.067h-34.133v34.133c0 18.773-15.36 34.133-34.133 34.133s-34.133-15.36-34.133-34.133v-34.133h-273.067v34.133c0 18.773-15.36 34.133-34.133 34.133s-34.133-15.36-34.133-34.133v-34.133h-34.133c-37.888 0-67.925-30.72-67.925-68.267l-0.341-477.867c0-37.547 30.379-68.267 68.267-68.267h477.867c37.547 0 68.267 30.72 68.267 68.267v477.867c0 37.547-30.72 68.267-68.267 68.267zM716.791 174.933h-409.6c-18.773 0-34.133 15.36-34.133 34.133v341.333h477.867v-341.333c0-18.773-15.36-34.133-34.133-34.133z" />
<glyph unicode="&#xe90b;" glyph-name="download" d="M668.668 516.262c30.379 0 45.397-36.864 23.893-58.368l-156.672-156.672c-13.312-13.312-34.816-13.312-48.128 0l-156.672 156.672c-21.504 21.504-6.144 58.368 24.235 58.368h54.272v170.667c0 18.773 15.36 34.133 34.133 34.133h136.533c18.773 0 34.133-15.36 34.133-34.133v-170.667h54.272zM273.062 174.929c0 18.773 15.36 34.133 34.133 34.133h409.6c18.773 0 34.133-15.36 34.133-34.133s-15.36-34.133-34.133-34.133h-409.6c-18.773 0-34.133 15.36-34.133 34.133z" />
<glyph unicode="&#xe90c;" glyph-name="file" d="M307.204 789.334c-37.547 0-67.926-30.72-67.926-68.266l-0.341-546.136c0-37.542 30.379-68.262 67.925-68.262h409.944c37.542 0 68.262 30.72 68.262 68.262v381.272c0 18.090-7.168 35.498-20.134 48.128l-164.867 164.864c-12.629 12.97-30.037 20.138-48.128 20.138h-244.735zM546.138 584.534v153.6l187.731-187.733h-153.598c-18.773 0-34.133 15.36-34.133 34.133z" />
<glyph unicode="&#xe90d;" glyph-name="filter" d="M819.191 705.707c0 27.307-22.187 49.493-49.493 49.493h-515.413c-27.307 0-49.493-22.187-49.493-49.493 0-11.947 4.437-23.893 12.629-32.768l260.437-293.205v-170.667h-136.533c-18.773 0-34.133-15.36-34.133-34.133s15.36-34.133 34.133-34.133h341.333c18.773 0 34.133 15.36 34.133 34.133s-15.36 34.133-34.133 34.133h-136.533v170.667l260.437 293.205c8.192 8.875 12.629 20.821 12.629 32.768zM356.002 618.667l-60.416 68.267h433.152l-60.757-68.267h-311.979z" />
<glyph unicode="&#xe90e;" glyph-name="list" d="M238.925 550.4c-18.773 0-34.133 15.36-34.133 34.133s15.36 34.133 34.133 34.133c18.773 0 34.133-15.36 34.133-34.133s-15.36-34.133-34.133-34.133zM273.058 448c0 18.773-15.36 34.133-34.133 34.133s-34.133-15.36-34.133-34.133c0-18.773 15.36-34.133 34.133-34.133s34.133 15.36 34.133 34.133zM273.058 311.467c0 18.773-15.36 34.133-34.133 34.133s-34.133-15.36-34.133-34.133c0-18.773 15.36-34.133 34.133-34.133s34.133 15.36 34.133 34.133zM819.191 448c0 18.773-15.36 34.133-34.133 34.133h-409.6c-18.773 0-34.133-15.36-34.133-34.133s15.36-34.133 34.133-34.133h409.6c18.773 0 34.133 15.36 34.133 34.133zM785.058 277.333h-409.6c-18.773 0-34.133 15.36-34.133 34.133s15.36 34.133 34.133 34.133h409.6c18.773 0 34.133-15.36 34.133-34.133s-15.36-34.133-34.133-34.133zM375.458 550.4h409.6c18.773 0 34.133 15.36 34.133 34.133s-15.36 34.133-34.133 34.133h-409.6c-18.773 0-34.133-15.36-34.133-34.133s15.36-34.133 34.133-34.133z" />
<glyph unicode="&#xe90f;" glyph-name="logistic" d="M748.203 652.459c-6.827 20.139-25.941 34.475-48.469 34.475h-85.333v34.133c0 18.773-15.36 34.133-34.133 34.133h-136.533c-18.771 0-34.131-15.36-34.131-34.133v-34.133h-85.333c-22.528 0-41.301-14.336-48.469-34.475l-67.243-193.536c-2.389-7.168-3.755-14.677-3.755-22.528v-244.395c0-28.331 22.869-51.2 51.2-51.2s51.2 22.869 51.2 51.2v17.067h409.598v-17.067c0-27.989 22.869-51.2 51.2-51.2 27.989 0 51.2 22.869 51.2 51.2v244.395c0 7.509-1.365 15.36-3.755 22.528l-67.243 193.536zM324.269 311.467c-28.331 0-51.2 22.869-51.2 51.2s22.869 51.2 51.2 51.2c28.331 0 51.2-22.869 51.2-51.2s-22.869-51.2-51.2-51.2zM699.733 311.467c-28.331 0-51.2 22.869-51.2 51.2s22.869 51.2 51.2 51.2c28.331 0 51.2-22.869 51.2-51.2s-22.869-51.2-51.2-51.2zM273.069 482.133l51.2 153.6h375.465l51.2-153.6h-477.865z" />
<glyph unicode="&#xe910;" glyph-name="pdf" d="M197.979 550.396h104.166c51.667 0 86.667-33.502 86.667-85.167 0-51.332-36.833-84.834-90.333-84.834h-39.334v-70.498h-61.167v240.499zM259.146 503.561v-77.163h26.5c26 0 41.333 13.5 41.333 38.665 0 24.998-15.333 38.498-41 38.498h-26.833zM415.979 550.396h97.668c72.666 0 115.332-42.167 115.332-118.835 0-76.83-42.833-121.664-115.332-121.664h-97.668v240.499zM477.146 501.065v-141.837h28.501c39.834 0 61.167 24.166 61.167 72.166 0 45.167-22.502 69.67-61.167 69.67h-28.501zM719.812 309.897v89.664h93.167v46.835h-93.167v54.669h102.498v49.331h-163.665v-240.499h61.167z" />
<glyph unicode="&#xe911;" glyph-name="report" d="M750.933 755.2h-142.677c-14.336 39.595-51.883 68.267-96.256 68.267s-81.92-28.672-96.254-68.267h-142.677c-37.547 0-68.267-30.72-68.267-68.267v-546.133c0-37.547 30.72-68.267 68.267-68.267h477.865c37.547 0 68.267 30.72 68.267 68.267v546.133c0 37.547-30.72 68.267-68.267 68.267zM512 755.2c18.773 0 34.133-15.36 34.133-34.133s-15.36-34.133-34.133-34.133c-18.773 0-34.133 15.36-34.133 34.133s15.36 34.133 34.133 34.133zM716.8 140.8h-409.598c-18.773 0-34.133 15.36-34.133 34.133v477.866c0 18.773 15.36 34.133 34.133 34.133h34.133v-34.133c0-37.547 30.72-68.267 68.267-68.267h204.798c37.547 0 68.267 30.72 68.267 68.267v34.133h34.133c18.773 0 34.133-15.36 34.133-34.133v-477.866c0-18.773-15.36-34.133-34.133-34.133z" />
<glyph unicode="&#xe912;" glyph-name="send" d="M218.453 144.729l595.627 255.317c27.648 11.947 27.648 50.859 0 62.805l-595.627 255.318c-22.528 9.899-47.445-6.827-47.445-31.061l-0.341-157.355c0-17.067 12.629-31.744 29.696-33.792l482.304-64.512-482.304-64.171c-17.067-2.389-29.696-17.067-29.696-34.133l0.341-157.355c0-24.235 24.917-40.96 47.445-31.061v0z" />
<glyph unicode="&#xe913;" glyph-name="sort" d="M658.492 284.075h61.44c15.019 0 22.869-18.432 11.947-29.013l-95.232-94.891c-6.827-6.485-17.408-6.485-24.235 0l-95.232 94.891c-10.923 10.581-3.413 29.013 11.947 29.013h61.099v205.141c0 18.773 15.36 34.133 34.133 34.133s34.133-15.36 34.133-34.133v-205.141zM407.613 750.336c6.485 6.485 17.408 6.485 23.892 0l95.232-95.232c10.923-10.581 3.413-29.013-11.947-29.013h-61.099v-205.141c0-18.773-15.36-34.133-34.132-34.133s-34.133 15.36-34.133 34.133v205.141h-61.099c-15.36 0-22.869 18.432-11.947 29.013l95.232 95.232z" />
<glyph unicode="&#xe914;" glyph-name="store" d="M279.171 652.801c-18.773 0-34.133 15.36-34.133 34.133s15.36 34.133 34.133 34.133h477.868c18.773 0 34.133-15.36 34.133-34.133s-15.36-34.133-34.133-34.133h-477.868zM796.634 591.361c-3.072 15.701-17.067 27.307-33.451 27.307h-490.156c-16.384 0-30.379-11.605-33.451-27.307l-34.133-170.668c-4.096-21.163 11.947-40.96 33.451-40.96h6.144v-170.667c0-18.773 15.36-34.133 34.133-34.133h273.068c18.773 0 34.133 15.36 34.133 34.133v170.667h136.533v-170.667c0-18.773 15.36-34.133 34.133-34.133s34.133 15.36 34.133 34.133v170.667h6.144c21.504 0 37.547 19.797 33.451 40.96l-34.133 170.668zM518.106 243.2h-204.801v136.533h204.801v-136.533z" />
<glyph unicode="&#xe915;" glyph-name="user" d="M512.004 656.213c39.595 0 71.68-32.085 71.68-71.68s-32.085-71.68-71.68-71.68c-39.595 0-71.68 32.085-71.68 71.68s32.085 71.68 71.68 71.68v0zM512.004 349.013c101.376 0 208.213-49.835 208.213-71.68v-37.547h-416.427v37.547c0 21.845 106.837 71.68 208.213 71.68v0zM512.004 721.066c-75.435 0-136.533-61.099-136.533-136.533s61.099-136.533 136.533-136.533c75.435 0 136.533 61.099 136.533 136.533s-61.099 136.533-136.533 136.533zM512.004 413.867c-91.136 0-273.067-45.739-273.067-136.533v-68.267c0-18.773 15.36-34.133 34.133-34.133h477.867c18.773 0 34.133 15.36 34.133 34.133v68.267c0 90.795-181.931 136.533-273.067 136.533z" />
<glyph unicode="&#xe916;" glyph-name="user-multi" d="M409.6 448c65.877 0 119.467 53.589 119.467 119.467s-53.589 119.467-119.467 119.467c-65.877 0-119.467-53.589-119.467-119.467s53.589-119.467 119.467-119.467zM409.6 618.667c28.331 0 51.2-22.869 51.2-51.2s-22.869-51.2-51.2-51.2c-28.331 0-51.2 22.87-51.2 51.2s22.869 51.2 51.2 51.2zM409.6 388.267c-79.872 0-238.933-39.936-238.933-119.467v-25.6c0-18.773 15.36-34.133 34.133-34.133h409.6c18.773 0 34.133 15.36 34.133 34.133v25.6c0 79.531-159.061 119.467-238.933 119.467zM250.539 277.333c28.672 19.797 97.963 42.667 159.061 42.667s130.389-22.869 159.061-42.667h-318.123zM649.899 386.219c83.968-9.216 203.435-48.469 203.435-117.419v-25.6c0-18.773-15.36-34.133-34.133-34.133h-102.4v59.733c0 50.517-27.307 88.747-66.901 117.419zM614.4 448c-18.432 0-35.499 4.437-51.2 11.947 21.504 30.379 34.133 67.584 34.133 107.52s-12.629 77.141-34.133 107.52c15.701 7.509 32.768 11.947 51.2 11.947 65.877 0 119.467-53.589 119.467-119.467s-53.589-119.467-119.467-119.467z" />
<glyph unicode="&#xe917;" glyph-name="view" d="M512.009 686.932c-170.667 0-316.416-106.155-375.467-255.999 59.051-149.845 204.8-256 375.467-256s316.416 106.155 375.467 256c-59.051 149.844-204.8 255.999-375.467 255.999zM512.009 260.267c-94.208 0-170.667 76.459-170.667 170.667s76.459 170.666 170.667 170.666c94.208 0 170.667-76.458 170.667-170.666s-76.459-170.667-170.667-170.667zM512.009 533.333c56.661 0 102.4-45.739 102.4-102.4s-45.739-102.4-102.4-102.4c-56.661 0-102.4 45.739-102.4 102.4s45.739 102.4 102.4 102.4z" />
<glyph unicode="&#xe918;" glyph-name="close" d="M713.126 676.609c-6.378 6.391-15.034 9.983-24.064 9.983-9.027 0-17.686-3.592-24.064-9.983l-166.912-166.57-166.912 166.911c-6.378 6.392-15.035 9.984-24.064 9.984s-17.687-3.592-24.064-9.984c-13.312-13.312-13.312-34.816 0-48.127l166.912-166.912-166.912-166.912c-13.312-13.312-13.312-34.816 0-48.128s34.816-13.312 48.128 0l166.912 166.912 166.912-166.912c13.312-13.312 34.816-13.312 48.128 0s13.312 34.816 0 48.128l-166.912 166.912 166.912 166.912c12.97 12.97 12.97 34.815 0 47.786z" />
<glyph unicode="&#xe919;" glyph-name="add-circle" d="M512 618.667c18.773 0 34.133-15.36 34.133-34.133v-102.4h102.4c18.773 0 34.133-15.36 34.133-34.133s-15.36-34.133-34.133-34.133h-102.4v-102.4c0-18.773-15.36-34.133-34.133-34.133s-34.133 15.36-34.133 34.133v102.4h-102.4c-18.773 0-34.133 15.36-34.133 34.133s15.36 34.133 34.133 34.133h102.4v102.4c0 18.773 15.36 34.133 34.133 34.133zM512 789.333c-188.416 0-341.333-152.917-341.333-341.333s152.917-341.333 341.333-341.333c188.416 0 341.333 152.917 341.333 341.333s-152.917 341.333-341.333 341.333zM512 174.933c-150.528 0-273.067 122.539-273.067 273.067s122.539 273.067 273.067 273.067c150.528 0 273.067-122.539 273.067-273.067s-122.539-273.067-273.067-273.067z" />
<glyph unicode="&#xe91a;" glyph-name="trash" d="M307.217 209.067v341.334c0 37.547 30.72 68.267 68.267 68.267h273.067c37.547 0 68.267-30.72 68.267-68.267v-341.334c0-37.547-30.72-68.267-68.267-68.267h-273.067c-37.547 0-68.267 30.72-68.267 68.267zM716.817 721.067c18.773 0 34.133-15.36 34.133-34.133s-15.36-34.133-34.133-34.133h-409.6c-18.773 0-34.133 15.36-34.133 34.133s15.36 34.133 34.133 34.133h85.333l24.235 24.235c6.144 6.144 15.019 9.899 23.894 9.899h142.677c8.875 0 17.749-3.755 23.893-9.899l24.235-24.235h85.333z" />
<glyph unicode="&#xe91b;" glyph-name="check" d="M416.154 304.896l-119.467 119.467c-6.31 6.387-14.915 9.984-23.893 9.984s-17.584-3.597-23.893-9.984c-13.312-13.312-13.312-34.475 0-47.787l143.019-143.019c13.312-13.312 34.816-13.312 48.128 0l361.813 361.472c13.312 13.312 13.312 34.475 0 47.787-6.31 6.388-14.916 9.984-23.893 9.984s-17.583-3.596-23.893-9.984l-337.92-337.92z" />
<glyph unicode="&#xe91c;" glyph-name="reply" d="M429.858 598.391v54.272c0 30.379-36.865 45.739-58.369 24.235l-156.672-156.672c-13.312-13.312-13.312-34.816 0-48.128l156.672-156.672c21.504-21.504 58.369-6.485 58.369 23.893v57.685c170.667 0 290.133-54.613 375.467-174.080-34.133 170.667-136.533 341.333-375.467 375.467z" />
<glyph unicode="&#xe91d;" glyph-name="warning" d="M204.856 140.717h632.488c26.285 0 42.669 28.326 29.696 51.2l-316.413 546.131c-13.312 22.869-46.080 22.869-59.051 0l-316.416-546.131c-12.971-22.874 3.413-51.2 29.696-51.2zM555.405 243.117h-68.266v68.262h68.266v-68.262zM521.272 379.647c-18.773 0-34.133 15.36-34.133 34.133v68.267c0 18.773 15.36 34.133 34.133 34.133s34.133-15.36 34.133-34.133v-68.267c0-18.773-15.36-34.133-34.133-34.133z" />
</font>
</defs>
</svg>
